<mxfile host="Electron" modified="2024-06-12T12:19:33.606Z" agent="Mozilla/5.0 (X11; Linux x86_64) AppleWebKit/537.36 (KHTML, like Gecko) draw.io/24.5.1 Chrome/124.0.6367.207 Electron/30.0.6 Safari/537.36" etag="Pyl-tRug6RdZCzoF-56d" version="24.5.1" type="device">
  <diagram name="Страница — 1" id="tcJj7691rdoH8GEsD61w">
    <mxGraphModel dx="1886" dy="877" grid="1" gridSize="10" guides="1" tooltips="1" connect="1" arrows="1" fold="1" page="1" pageScale="1" pageWidth="827" pageHeight="1169" math="0" shadow="0">
      <root>
        <mxCell id="0" />
        <mxCell id="1" parent="0" />
        <mxCell id="jCJTqnAl0TPpqfKb8Z5F-2" value="Users" style="shape=table;startSize=30;container=1;collapsible=0;childLayout=tableLayout;fixedRows=1;rowLines=0;fontStyle=0;strokeColor=#DDA15E;fontSize=16;enumerate=0;backgroundOutline=0;strokeOpacity=100;snapToPoint=0;fixDash=0;metaEdit=0;cloneable=1;deletable=1;rounded=1;labelBackgroundColor=none;fillColor=#BC6C25;fontColor=#FEFAE0;" vertex="1" parent="1">
          <mxGeometry x="190" y="370" width="180" height="120" as="geometry" />
        </mxCell>
        <mxCell id="jCJTqnAl0TPpqfKb8Z5F-3" value="" style="shape=tableRow;horizontal=0;startSize=0;swimlaneHead=0;swimlaneBody=0;top=0;left=0;bottom=0;right=0;collapsible=0;dropTarget=0;fillColor=none;points=[[0,0.5],[1,0.5]];portConstraint=eastwest;strokeColor=#DDA15E;fontSize=16;enumerate=0;backgroundOutline=0;strokeOpacity=100;snapToPoint=0;fixDash=0;metaEdit=0;cloneable=1;deletable=1;rounded=1;labelBackgroundColor=none;fontColor=#FEFAE0;" vertex="1" parent="jCJTqnAl0TPpqfKb8Z5F-2">
          <mxGeometry y="30" width="180" height="30" as="geometry" />
        </mxCell>
        <mxCell id="jCJTqnAl0TPpqfKb8Z5F-4" value="uuid" style="shape=partialRectangle;html=1;whiteSpace=wrap;connectable=0;fillColor=none;top=0;left=0;bottom=0;right=0;overflow=hidden;pointerEvents=1;strokeColor=#DDA15E;fontSize=16;enumerate=0;backgroundOutline=0;strokeOpacity=100;snapToPoint=0;fixDash=0;metaEdit=0;cloneable=1;deletable=1;rounded=1;labelBackgroundColor=none;fontColor=#FEFAE0;" vertex="1" parent="jCJTqnAl0TPpqfKb8Z5F-3">
          <mxGeometry width="70" height="30" as="geometry">
            <mxRectangle width="70" height="30" as="alternateBounds" />
          </mxGeometry>
        </mxCell>
        <mxCell id="jCJTqnAl0TPpqfKb8Z5F-5" value="ID" style="shape=partialRectangle;html=1;whiteSpace=wrap;connectable=0;fillColor=none;top=0;left=0;bottom=0;right=0;align=left;spacingLeft=6;overflow=hidden;strokeColor=#DDA15E;fontSize=16;enumerate=0;backgroundOutline=0;strokeOpacity=100;snapToPoint=0;fixDash=0;metaEdit=0;cloneable=1;deletable=1;rounded=1;labelBackgroundColor=none;fontColor=#FEFAE0;" vertex="1" parent="jCJTqnAl0TPpqfKb8Z5F-3">
          <mxGeometry x="70" width="110" height="30" as="geometry">
            <mxRectangle width="110" height="30" as="alternateBounds" />
          </mxGeometry>
        </mxCell>
        <mxCell id="jCJTqnAl0TPpqfKb8Z5F-6" value="" style="shape=tableRow;horizontal=0;startSize=0;swimlaneHead=0;swimlaneBody=0;top=0;left=0;bottom=0;right=0;collapsible=0;dropTarget=0;fillColor=none;points=[[0,0.5],[1,0.5]];portConstraint=eastwest;strokeColor=#DDA15E;fontSize=16;enumerate=0;backgroundOutline=0;strokeOpacity=100;snapToPoint=0;fixDash=0;metaEdit=0;cloneable=1;deletable=1;rounded=1;labelBackgroundColor=none;fontColor=#FEFAE0;" vertex="1" parent="jCJTqnAl0TPpqfKb8Z5F-2">
          <mxGeometry y="60" width="180" height="30" as="geometry" />
        </mxCell>
        <mxCell id="jCJTqnAl0TPpqfKb8Z5F-7" value="varchar" style="shape=partialRectangle;html=1;whiteSpace=wrap;connectable=0;fillColor=none;top=0;left=0;bottom=0;right=0;overflow=hidden;strokeColor=#DDA15E;fontSize=16;enumerate=0;backgroundOutline=0;strokeOpacity=100;snapToPoint=0;fixDash=0;metaEdit=0;cloneable=1;deletable=1;rounded=1;labelBackgroundColor=none;fontColor=#FEFAE0;" vertex="1" parent="jCJTqnAl0TPpqfKb8Z5F-6">
          <mxGeometry width="70" height="30" as="geometry">
            <mxRectangle width="70" height="30" as="alternateBounds" />
          </mxGeometry>
        </mxCell>
        <mxCell id="jCJTqnAl0TPpqfKb8Z5F-8" value="username" style="shape=partialRectangle;html=1;whiteSpace=wrap;connectable=0;fillColor=none;top=0;left=0;bottom=0;right=0;align=left;spacingLeft=6;overflow=hidden;strokeColor=#DDA15E;fontSize=16;enumerate=0;backgroundOutline=0;strokeOpacity=100;snapToPoint=0;fixDash=0;metaEdit=0;cloneable=1;deletable=1;rounded=1;labelBackgroundColor=none;fontColor=#FEFAE0;" vertex="1" parent="jCJTqnAl0TPpqfKb8Z5F-6">
          <mxGeometry x="70" width="110" height="30" as="geometry">
            <mxRectangle width="110" height="30" as="alternateBounds" />
          </mxGeometry>
        </mxCell>
        <mxCell id="jCJTqnAl0TPpqfKb8Z5F-23" value="" style="shape=tableRow;horizontal=0;startSize=0;swimlaneHead=0;swimlaneBody=0;top=0;left=0;bottom=0;right=0;collapsible=0;dropTarget=0;fillColor=none;points=[[0,0.5],[1,0.5]];portConstraint=eastwest;strokeColor=#DDA15E;fontSize=16;enumerate=0;backgroundOutline=0;strokeOpacity=100;snapToPoint=0;fixDash=0;metaEdit=0;cloneable=1;deletable=1;rounded=1;labelBackgroundColor=none;fontColor=#FEFAE0;" vertex="1" parent="jCJTqnAl0TPpqfKb8Z5F-2">
          <mxGeometry y="90" width="180" height="30" as="geometry" />
        </mxCell>
        <mxCell id="jCJTqnAl0TPpqfKb8Z5F-24" value="varchar" style="shape=partialRectangle;html=1;whiteSpace=wrap;connectable=0;fillColor=none;top=0;left=0;bottom=0;right=0;overflow=hidden;strokeColor=#DDA15E;fontSize=16;enumerate=0;backgroundOutline=0;strokeOpacity=100;snapToPoint=0;fixDash=0;metaEdit=0;cloneable=1;deletable=1;rounded=1;labelBackgroundColor=none;fontColor=#FEFAE0;" vertex="1" parent="jCJTqnAl0TPpqfKb8Z5F-23">
          <mxGeometry width="70" height="30" as="geometry">
            <mxRectangle width="70" height="30" as="alternateBounds" />
          </mxGeometry>
        </mxCell>
        <mxCell id="jCJTqnAl0TPpqfKb8Z5F-25" value="password" style="shape=partialRectangle;html=1;whiteSpace=wrap;connectable=0;fillColor=none;top=0;left=0;bottom=0;right=0;align=left;spacingLeft=6;overflow=hidden;strokeColor=#DDA15E;fontSize=16;enumerate=0;backgroundOutline=0;strokeOpacity=100;snapToPoint=0;fixDash=0;metaEdit=0;cloneable=1;deletable=1;rounded=1;labelBackgroundColor=none;fontColor=#FEFAE0;" vertex="1" parent="jCJTqnAl0TPpqfKb8Z5F-23">
          <mxGeometry x="70" width="110" height="30" as="geometry">
            <mxRectangle width="110" height="30" as="alternateBounds" />
          </mxGeometry>
        </mxCell>
        <mxCell id="jCJTqnAl0TPpqfKb8Z5F-26" value="Forms" style="shape=table;startSize=30;container=1;collapsible=0;childLayout=tableLayout;fixedRows=1;rowLines=0;fontStyle=0;strokeColor=#DDA15E;fontSize=16;shadow=0;strokeWidth=1;comic=0;enumerate=0;backgroundOutline=0;strokeOpacity=100;snapToPoint=0;fixDash=0;metaEdit=0;cloneable=1;deletable=1;rounded=1;labelBackgroundColor=none;fillColor=#BC6C25;fontColor=#FEFAE0;" vertex="1" parent="1">
          <mxGeometry x="620" y="370" width="180" height="150" as="geometry" />
        </mxCell>
        <mxCell id="jCJTqnAl0TPpqfKb8Z5F-27" value="" style="shape=tableRow;horizontal=0;startSize=0;swimlaneHead=0;swimlaneBody=0;top=0;left=0;bottom=0;right=0;collapsible=0;dropTarget=0;fillColor=none;points=[[0,0.5],[1,0.5]];portConstraint=eastwest;strokeColor=#DDA15E;fontSize=16;shadow=0;strokeWidth=1;comic=0;enumerate=0;backgroundOutline=0;strokeOpacity=100;snapToPoint=0;fixDash=0;metaEdit=0;cloneable=1;deletable=1;rounded=1;labelBackgroundColor=none;fontColor=#FEFAE0;" vertex="1" parent="jCJTqnAl0TPpqfKb8Z5F-26">
          <mxGeometry y="30" width="180" height="30" as="geometry" />
        </mxCell>
        <mxCell id="jCJTqnAl0TPpqfKb8Z5F-28" value="uuid" style="shape=partialRectangle;html=1;whiteSpace=wrap;connectable=0;fillColor=none;top=0;left=0;bottom=0;right=0;overflow=hidden;pointerEvents=1;strokeColor=#DDA15E;fontSize=16;shadow=0;strokeWidth=1;comic=0;enumerate=0;backgroundOutline=0;strokeOpacity=100;snapToPoint=0;fixDash=0;metaEdit=0;cloneable=1;deletable=1;rounded=1;labelBackgroundColor=none;fontColor=#FEFAE0;" vertex="1" parent="jCJTqnAl0TPpqfKb8Z5F-27">
          <mxGeometry width="90" height="30" as="geometry">
            <mxRectangle width="90" height="30" as="alternateBounds" />
          </mxGeometry>
        </mxCell>
        <mxCell id="jCJTqnAl0TPpqfKb8Z5F-29" value="ID" style="shape=partialRectangle;html=1;whiteSpace=wrap;connectable=0;fillColor=none;top=0;left=0;bottom=0;right=0;align=left;spacingLeft=6;overflow=hidden;strokeColor=#DDA15E;fontSize=16;shadow=0;strokeWidth=1;comic=0;enumerate=0;backgroundOutline=0;strokeOpacity=100;snapToPoint=0;fixDash=0;metaEdit=0;cloneable=1;deletable=1;rounded=1;labelBackgroundColor=none;fontColor=#FEFAE0;" vertex="1" parent="jCJTqnAl0TPpqfKb8Z5F-27">
          <mxGeometry x="90" width="90" height="30" as="geometry">
            <mxRectangle width="90" height="30" as="alternateBounds" />
          </mxGeometry>
        </mxCell>
        <mxCell id="jCJTqnAl0TPpqfKb8Z5F-30" value="" style="shape=tableRow;horizontal=0;startSize=0;swimlaneHead=0;swimlaneBody=0;top=0;left=0;bottom=0;right=0;collapsible=0;dropTarget=0;fillColor=none;points=[[0,0.5],[1,0.5]];portConstraint=eastwest;strokeColor=#DDA15E;fontSize=16;shadow=0;strokeWidth=1;comic=0;enumerate=0;backgroundOutline=0;strokeOpacity=100;snapToPoint=0;fixDash=0;metaEdit=0;cloneable=1;deletable=1;rounded=1;labelBackgroundColor=none;fontColor=#FEFAE0;" vertex="1" parent="jCJTqnAl0TPpqfKb8Z5F-26">
          <mxGeometry y="60" width="180" height="30" as="geometry" />
        </mxCell>
        <mxCell id="jCJTqnAl0TPpqfKb8Z5F-31" value="varchar" style="shape=partialRectangle;html=1;whiteSpace=wrap;connectable=0;fillColor=none;top=0;left=0;bottom=0;right=0;overflow=hidden;strokeColor=#DDA15E;fontSize=16;shadow=0;strokeWidth=1;comic=0;enumerate=0;backgroundOutline=0;strokeOpacity=100;snapToPoint=0;fixDash=0;metaEdit=0;cloneable=1;deletable=1;rounded=1;labelBackgroundColor=none;fontColor=#FEFAE0;" vertex="1" parent="jCJTqnAl0TPpqfKb8Z5F-30">
          <mxGeometry width="90" height="30" as="geometry">
            <mxRectangle width="90" height="30" as="alternateBounds" />
          </mxGeometry>
        </mxCell>
        <mxCell id="jCJTqnAl0TPpqfKb8Z5F-32" value="title" style="shape=partialRectangle;html=1;whiteSpace=wrap;connectable=0;fillColor=none;top=0;left=0;bottom=0;right=0;align=left;spacingLeft=6;overflow=hidden;strokeColor=#DDA15E;fontSize=16;shadow=0;strokeWidth=1;comic=0;enumerate=0;backgroundOutline=0;strokeOpacity=100;snapToPoint=0;fixDash=0;metaEdit=0;cloneable=1;deletable=1;rounded=1;labelBackgroundColor=none;fontColor=#FEFAE0;" vertex="1" parent="jCJTqnAl0TPpqfKb8Z5F-30">
          <mxGeometry x="90" width="90" height="30" as="geometry">
            <mxRectangle width="90" height="30" as="alternateBounds" />
          </mxGeometry>
        </mxCell>
        <mxCell id="jCJTqnAl0TPpqfKb8Z5F-33" value="" style="shape=tableRow;horizontal=0;startSize=0;swimlaneHead=0;swimlaneBody=0;top=0;left=0;bottom=0;right=0;collapsible=0;dropTarget=0;fillColor=none;points=[[0,0.5],[1,0.5]];portConstraint=eastwest;strokeColor=#DDA15E;fontSize=16;shadow=0;strokeWidth=1;comic=0;enumerate=0;backgroundOutline=0;strokeOpacity=100;snapToPoint=0;fixDash=0;metaEdit=0;cloneable=1;deletable=1;rounded=1;labelBackgroundColor=none;fontColor=#FEFAE0;" vertex="1" parent="jCJTqnAl0TPpqfKb8Z5F-26">
          <mxGeometry y="90" width="180" height="30" as="geometry" />
        </mxCell>
        <mxCell id="jCJTqnAl0TPpqfKb8Z5F-34" value="uuid" style="shape=partialRectangle;html=1;whiteSpace=wrap;connectable=0;fillColor=none;top=0;left=0;bottom=0;right=0;overflow=hidden;strokeColor=#DDA15E;fontSize=16;shadow=0;strokeWidth=1;comic=0;enumerate=0;backgroundOutline=0;strokeOpacity=100;snapToPoint=0;fixDash=0;metaEdit=0;cloneable=1;deletable=1;rounded=1;labelBackgroundColor=none;fontColor=#FEFAE0;" vertex="1" parent="jCJTqnAl0TPpqfKb8Z5F-33">
          <mxGeometry width="90" height="30" as="geometry">
            <mxRectangle width="90" height="30" as="alternateBounds" />
          </mxGeometry>
        </mxCell>
        <mxCell id="jCJTqnAl0TPpqfKb8Z5F-35" value="&lt;span style=&quot;text-align: center;&quot;&gt;author&lt;/span&gt;" style="shape=partialRectangle;html=1;whiteSpace=wrap;connectable=0;fillColor=none;top=0;left=0;bottom=0;right=0;align=left;spacingLeft=6;overflow=hidden;strokeColor=#DDA15E;fontSize=16;shadow=0;strokeWidth=1;comic=0;enumerate=0;backgroundOutline=0;strokeOpacity=100;snapToPoint=0;fixDash=0;metaEdit=0;cloneable=1;deletable=1;rounded=1;labelBackgroundColor=none;fontColor=#FEFAE0;" vertex="1" parent="jCJTqnAl0TPpqfKb8Z5F-33">
          <mxGeometry x="90" width="90" height="30" as="geometry">
            <mxRectangle width="90" height="30" as="alternateBounds" />
          </mxGeometry>
        </mxCell>
        <mxCell id="jCJTqnAl0TPpqfKb8Z5F-131" value="" style="shape=tableRow;horizontal=0;startSize=0;swimlaneHead=0;swimlaneBody=0;top=0;left=0;bottom=0;right=0;collapsible=0;dropTarget=0;fillColor=none;points=[[0,0.5],[1,0.5]];portConstraint=eastwest;strokeColor=#DDA15E;fontSize=16;shadow=0;strokeWidth=1;comic=0;enumerate=0;backgroundOutline=0;strokeOpacity=100;snapToPoint=0;fixDash=0;metaEdit=0;cloneable=1;deletable=1;rounded=1;labelBackgroundColor=none;fontColor=#FEFAE0;" vertex="1" parent="jCJTqnAl0TPpqfKb8Z5F-26">
          <mxGeometry y="120" width="180" height="30" as="geometry" />
        </mxCell>
        <mxCell id="jCJTqnAl0TPpqfKb8Z5F-132" value="timestamp" style="shape=partialRectangle;html=1;whiteSpace=wrap;connectable=0;fillColor=none;top=0;left=0;bottom=0;right=0;overflow=hidden;strokeColor=#DDA15E;fontSize=16;shadow=0;strokeWidth=1;comic=0;enumerate=0;backgroundOutline=0;strokeOpacity=100;snapToPoint=0;fixDash=0;metaEdit=0;cloneable=1;deletable=1;rounded=1;labelBackgroundColor=none;fontColor=#FEFAE0;" vertex="1" parent="jCJTqnAl0TPpqfKb8Z5F-131">
          <mxGeometry width="90" height="30" as="geometry">
            <mxRectangle width="90" height="30" as="alternateBounds" />
          </mxGeometry>
        </mxCell>
        <mxCell id="jCJTqnAl0TPpqfKb8Z5F-133" value="&lt;span style=&quot;text-align: center;&quot;&gt;created_at&lt;/span&gt;" style="shape=partialRectangle;html=1;whiteSpace=wrap;connectable=0;fillColor=none;top=0;left=0;bottom=0;right=0;align=left;spacingLeft=6;overflow=hidden;strokeColor=#DDA15E;fontSize=16;shadow=0;strokeWidth=1;comic=0;enumerate=0;backgroundOutline=0;strokeOpacity=100;snapToPoint=0;fixDash=0;metaEdit=0;cloneable=1;deletable=1;rounded=1;labelBackgroundColor=none;fontColor=#FEFAE0;" vertex="1" parent="jCJTqnAl0TPpqfKb8Z5F-131">
          <mxGeometry x="90" width="90" height="30" as="geometry">
            <mxRectangle width="90" height="30" as="alternateBounds" />
          </mxGeometry>
        </mxCell>
        <mxCell id="jCJTqnAl0TPpqfKb8Z5F-51" value="Tests" style="shape=table;startSize=30;container=1;collapsible=0;childLayout=tableLayout;fixedRows=1;rowLines=0;fontStyle=0;strokeColor=#DDA15E;fontSize=16;enumerate=0;backgroundOutline=0;strokeOpacity=100;snapToPoint=0;fixDash=0;metaEdit=0;cloneable=1;deletable=1;rounded=1;labelBackgroundColor=none;fillColor=#BC6C25;fontColor=#FEFAE0;" vertex="1" parent="1">
          <mxGeometry x="1314" y="300" width="180" height="120" as="geometry" />
        </mxCell>
        <mxCell id="jCJTqnAl0TPpqfKb8Z5F-52" value="" style="shape=tableRow;horizontal=0;startSize=0;swimlaneHead=0;swimlaneBody=0;top=0;left=0;bottom=0;right=0;collapsible=0;dropTarget=0;fillColor=none;points=[[0,0.5],[1,0.5]];portConstraint=eastwest;strokeColor=#DDA15E;fontSize=16;enumerate=0;backgroundOutline=0;strokeOpacity=100;snapToPoint=0;fixDash=0;metaEdit=0;cloneable=1;deletable=1;rounded=1;labelBackgroundColor=none;fontColor=#FEFAE0;" vertex="1" parent="jCJTqnAl0TPpqfKb8Z5F-51">
          <mxGeometry y="30" width="180" height="30" as="geometry" />
        </mxCell>
        <mxCell id="jCJTqnAl0TPpqfKb8Z5F-53" value="uuid" style="shape=partialRectangle;html=1;whiteSpace=wrap;connectable=0;fillColor=none;top=0;left=0;bottom=0;right=0;overflow=hidden;pointerEvents=1;strokeColor=#DDA15E;fontSize=16;enumerate=0;backgroundOutline=0;strokeOpacity=100;snapToPoint=0;fixDash=0;metaEdit=0;cloneable=1;deletable=1;rounded=1;labelBackgroundColor=none;fontColor=#FEFAE0;" vertex="1" parent="jCJTqnAl0TPpqfKb8Z5F-52">
          <mxGeometry width="66" height="30" as="geometry">
            <mxRectangle width="66" height="30" as="alternateBounds" />
          </mxGeometry>
        </mxCell>
        <mxCell id="jCJTqnAl0TPpqfKb8Z5F-54" value="ID" style="shape=partialRectangle;html=1;whiteSpace=wrap;connectable=0;fillColor=none;top=0;left=0;bottom=0;right=0;align=left;spacingLeft=6;overflow=hidden;strokeColor=#DDA15E;fontSize=16;enumerate=0;backgroundOutline=0;strokeOpacity=100;snapToPoint=0;fixDash=0;metaEdit=0;cloneable=1;deletable=1;rounded=1;labelBackgroundColor=none;fontColor=#FEFAE0;" vertex="1" parent="jCJTqnAl0TPpqfKb8Z5F-52">
          <mxGeometry x="66" width="114" height="30" as="geometry">
            <mxRectangle width="114" height="30" as="alternateBounds" />
          </mxGeometry>
        </mxCell>
        <mxCell id="jCJTqnAl0TPpqfKb8Z5F-122" value="" style="shape=tableRow;horizontal=0;startSize=0;swimlaneHead=0;swimlaneBody=0;top=0;left=0;bottom=0;right=0;collapsible=0;dropTarget=0;fillColor=none;points=[[0,0.5],[1,0.5]];portConstraint=eastwest;strokeColor=#DDA15E;fontSize=16;enumerate=0;backgroundOutline=0;strokeOpacity=100;snapToPoint=0;fixDash=0;metaEdit=0;cloneable=1;deletable=1;rounded=1;labelBackgroundColor=none;fontColor=#FEFAE0;" vertex="1" parent="jCJTqnAl0TPpqfKb8Z5F-51">
          <mxGeometry y="60" width="180" height="30" as="geometry" />
        </mxCell>
        <mxCell id="jCJTqnAl0TPpqfKb8Z5F-123" value="varchar" style="shape=partialRectangle;html=1;whiteSpace=wrap;connectable=0;fillColor=none;top=0;left=0;bottom=0;right=0;overflow=hidden;strokeColor=#DDA15E;fontSize=16;enumerate=0;backgroundOutline=0;strokeOpacity=100;snapToPoint=0;fixDash=0;metaEdit=0;cloneable=1;deletable=1;rounded=1;labelBackgroundColor=none;fontColor=#FEFAE0;" vertex="1" parent="jCJTqnAl0TPpqfKb8Z5F-122">
          <mxGeometry width="66" height="30" as="geometry">
            <mxRectangle width="66" height="30" as="alternateBounds" />
          </mxGeometry>
        </mxCell>
        <mxCell id="jCJTqnAl0TPpqfKb8Z5F-124" value="question" style="shape=partialRectangle;html=1;whiteSpace=wrap;connectable=0;fillColor=none;top=0;left=0;bottom=0;right=0;align=left;spacingLeft=6;overflow=hidden;strokeColor=#DDA15E;fontSize=16;enumerate=0;backgroundOutline=0;strokeOpacity=100;snapToPoint=0;fixDash=0;metaEdit=0;cloneable=1;deletable=1;rounded=1;labelBackgroundColor=none;fontColor=#FEFAE0;" vertex="1" parent="jCJTqnAl0TPpqfKb8Z5F-122">
          <mxGeometry x="66" width="114" height="30" as="geometry">
            <mxRectangle width="114" height="30" as="alternateBounds" />
          </mxGeometry>
        </mxCell>
        <mxCell id="jCJTqnAl0TPpqfKb8Z5F-55" value="" style="shape=tableRow;horizontal=0;startSize=0;swimlaneHead=0;swimlaneBody=0;top=0;left=0;bottom=0;right=0;collapsible=0;dropTarget=0;fillColor=none;points=[[0,0.5],[1,0.5]];portConstraint=eastwest;strokeColor=#DDA15E;fontSize=16;enumerate=0;backgroundOutline=0;strokeOpacity=100;snapToPoint=0;fixDash=0;metaEdit=0;cloneable=1;deletable=1;rounded=1;labelBackgroundColor=none;fontColor=#FEFAE0;" vertex="1" parent="jCJTqnAl0TPpqfKb8Z5F-51">
          <mxGeometry y="90" width="180" height="30" as="geometry" />
        </mxCell>
        <mxCell id="jCJTqnAl0TPpqfKb8Z5F-56" value="uuid" style="shape=partialRectangle;html=1;whiteSpace=wrap;connectable=0;fillColor=none;top=0;left=0;bottom=0;right=0;overflow=hidden;strokeColor=#DDA15E;fontSize=16;enumerate=0;backgroundOutline=0;strokeOpacity=100;snapToPoint=0;fixDash=0;metaEdit=0;cloneable=1;deletable=1;rounded=1;labelBackgroundColor=none;fontColor=#FEFAE0;" vertex="1" parent="jCJTqnAl0TPpqfKb8Z5F-55">
          <mxGeometry width="66" height="30" as="geometry">
            <mxRectangle width="66" height="30" as="alternateBounds" />
          </mxGeometry>
        </mxCell>
        <mxCell id="jCJTqnAl0TPpqfKb8Z5F-57" value="form" style="shape=partialRectangle;html=1;whiteSpace=wrap;connectable=0;fillColor=none;top=0;left=0;bottom=0;right=0;align=left;spacingLeft=6;overflow=hidden;strokeColor=#DDA15E;fontSize=16;enumerate=0;backgroundOutline=0;strokeOpacity=100;snapToPoint=0;fixDash=0;metaEdit=0;cloneable=1;deletable=1;rounded=1;labelBackgroundColor=none;fontColor=#FEFAE0;" vertex="1" parent="jCJTqnAl0TPpqfKb8Z5F-55">
          <mxGeometry x="66" width="114" height="30" as="geometry">
            <mxRectangle width="114" height="30" as="alternateBounds" />
          </mxGeometry>
        </mxCell>
        <mxCell id="jCJTqnAl0TPpqfKb8Z5F-93" value="Answers" style="shape=table;startSize=30;container=1;collapsible=0;childLayout=tableLayout;fixedRows=1;rowLines=0;fontStyle=0;strokeColor=#DDA15E;fontSize=16;rounded=1;labelBackgroundColor=none;fillColor=#BC6C25;fontColor=#FEFAE0;" vertex="1" parent="1">
          <mxGeometry x="1800" y="210" width="180" height="180" as="geometry" />
        </mxCell>
        <mxCell id="jCJTqnAl0TPpqfKb8Z5F-94" value="" style="shape=tableRow;horizontal=0;startSize=0;swimlaneHead=0;swimlaneBody=0;top=0;left=0;bottom=0;right=0;collapsible=0;dropTarget=0;fillColor=none;points=[[0,0.5],[1,0.5]];portConstraint=eastwest;strokeColor=#DDA15E;fontSize=16;rounded=1;labelBackgroundColor=none;fontColor=#FEFAE0;" vertex="1" parent="jCJTqnAl0TPpqfKb8Z5F-93">
          <mxGeometry y="30" width="180" height="30" as="geometry" />
        </mxCell>
        <mxCell id="jCJTqnAl0TPpqfKb8Z5F-95" value="uuid" style="shape=partialRectangle;html=1;whiteSpace=wrap;connectable=0;fillColor=none;top=0;left=0;bottom=0;right=0;overflow=hidden;pointerEvents=1;strokeColor=#DDA15E;fontSize=16;rounded=1;labelBackgroundColor=none;fontColor=#FEFAE0;" vertex="1" parent="jCJTqnAl0TPpqfKb8Z5F-94">
          <mxGeometry width="70" height="30" as="geometry">
            <mxRectangle width="70" height="30" as="alternateBounds" />
          </mxGeometry>
        </mxCell>
        <mxCell id="jCJTqnAl0TPpqfKb8Z5F-96" value="id" style="shape=partialRectangle;html=1;whiteSpace=wrap;connectable=0;fillColor=none;top=0;left=0;bottom=0;right=0;align=left;spacingLeft=6;overflow=hidden;strokeColor=#DDA15E;fontSize=16;rounded=1;labelBackgroundColor=none;fontColor=#FEFAE0;" vertex="1" parent="jCJTqnAl0TPpqfKb8Z5F-94">
          <mxGeometry x="70" width="110" height="30" as="geometry">
            <mxRectangle width="110" height="30" as="alternateBounds" />
          </mxGeometry>
        </mxCell>
        <mxCell id="jCJTqnAl0TPpqfKb8Z5F-97" value="" style="shape=tableRow;horizontal=0;startSize=0;swimlaneHead=0;swimlaneBody=0;top=0;left=0;bottom=0;right=0;collapsible=0;dropTarget=0;fillColor=none;points=[[0,0.5],[1,0.5]];portConstraint=eastwest;strokeColor=#DDA15E;fontSize=16;rounded=1;labelBackgroundColor=none;fontColor=#FEFAE0;" vertex="1" parent="jCJTqnAl0TPpqfKb8Z5F-93">
          <mxGeometry y="60" width="180" height="30" as="geometry" />
        </mxCell>
        <mxCell id="jCJTqnAl0TPpqfKb8Z5F-98" value="varchar" style="shape=partialRectangle;html=1;whiteSpace=wrap;connectable=0;fillColor=none;top=0;left=0;bottom=0;right=0;overflow=hidden;strokeColor=#DDA15E;fontSize=16;rounded=1;labelBackgroundColor=none;fontColor=#FEFAE0;" vertex="1" parent="jCJTqnAl0TPpqfKb8Z5F-97">
          <mxGeometry width="70" height="30" as="geometry">
            <mxRectangle width="70" height="30" as="alternateBounds" />
          </mxGeometry>
        </mxCell>
        <mxCell id="jCJTqnAl0TPpqfKb8Z5F-99" value="answer" style="shape=partialRectangle;html=1;whiteSpace=wrap;connectable=0;fillColor=none;top=0;left=0;bottom=0;right=0;align=left;spacingLeft=6;overflow=hidden;strokeColor=#DDA15E;fontSize=16;rounded=1;labelBackgroundColor=none;fontColor=#FEFAE0;" vertex="1" parent="jCJTqnAl0TPpqfKb8Z5F-97">
          <mxGeometry x="70" width="110" height="30" as="geometry">
            <mxRectangle width="110" height="30" as="alternateBounds" />
          </mxGeometry>
        </mxCell>
        <mxCell id="jCJTqnAl0TPpqfKb8Z5F-100" value="" style="shape=tableRow;horizontal=0;startSize=0;swimlaneHead=0;swimlaneBody=0;top=0;left=0;bottom=0;right=0;collapsible=0;dropTarget=0;fillColor=none;points=[[0,0.5],[1,0.5]];portConstraint=eastwest;strokeColor=#DDA15E;fontSize=16;rounded=1;labelBackgroundColor=none;fontColor=#FEFAE0;" vertex="1" parent="jCJTqnAl0TPpqfKb8Z5F-93">
          <mxGeometry y="90" width="180" height="30" as="geometry" />
        </mxCell>
        <mxCell id="jCJTqnAl0TPpqfKb8Z5F-101" value="boolean" style="shape=partialRectangle;html=1;whiteSpace=wrap;connectable=0;fillColor=none;top=0;left=0;bottom=0;right=0;overflow=hidden;strokeColor=#DDA15E;fontSize=16;rounded=1;labelBackgroundColor=none;fontColor=#FEFAE0;" vertex="1" parent="jCJTqnAl0TPpqfKb8Z5F-100">
          <mxGeometry width="70" height="30" as="geometry">
            <mxRectangle width="70" height="30" as="alternateBounds" />
          </mxGeometry>
        </mxCell>
        <mxCell id="jCJTqnAl0TPpqfKb8Z5F-102" value="is_right" style="shape=partialRectangle;html=1;whiteSpace=wrap;connectable=0;fillColor=none;top=0;left=0;bottom=0;right=0;align=left;spacingLeft=6;overflow=hidden;strokeColor=#DDA15E;fontSize=16;rounded=1;labelBackgroundColor=none;fontColor=#FEFAE0;" vertex="1" parent="jCJTqnAl0TPpqfKb8Z5F-100">
          <mxGeometry x="70" width="110" height="30" as="geometry">
            <mxRectangle width="110" height="30" as="alternateBounds" />
          </mxGeometry>
        </mxCell>
        <mxCell id="jCJTqnAl0TPpqfKb8Z5F-154" value="" style="shape=tableRow;horizontal=0;startSize=0;swimlaneHead=0;swimlaneBody=0;top=0;left=0;bottom=0;right=0;collapsible=0;dropTarget=0;fillColor=none;points=[[0,0.5],[1,0.5]];portConstraint=eastwest;strokeColor=#DDA15E;fontSize=16;rounded=1;labelBackgroundColor=none;fontColor=#FEFAE0;" vertex="1" parent="jCJTqnAl0TPpqfKb8Z5F-93">
          <mxGeometry y="120" width="180" height="30" as="geometry" />
        </mxCell>
        <mxCell id="jCJTqnAl0TPpqfKb8Z5F-155" value="uuid" style="shape=partialRectangle;html=1;whiteSpace=wrap;connectable=0;fillColor=none;top=0;left=0;bottom=0;right=0;overflow=hidden;strokeColor=#DDA15E;fontSize=16;rounded=1;labelBackgroundColor=none;fontColor=#FEFAE0;" vertex="1" parent="jCJTqnAl0TPpqfKb8Z5F-154">
          <mxGeometry width="70" height="30" as="geometry">
            <mxRectangle width="70" height="30" as="alternateBounds" />
          </mxGeometry>
        </mxCell>
        <mxCell id="jCJTqnAl0TPpqfKb8Z5F-156" value="test_id" style="shape=partialRectangle;html=1;whiteSpace=wrap;connectable=0;fillColor=none;top=0;left=0;bottom=0;right=0;align=left;spacingLeft=6;overflow=hidden;strokeColor=#DDA15E;fontSize=16;rounded=1;labelBackgroundColor=none;fontColor=#FEFAE0;" vertex="1" parent="jCJTqnAl0TPpqfKb8Z5F-154">
          <mxGeometry x="70" width="110" height="30" as="geometry">
            <mxRectangle width="110" height="30" as="alternateBounds" />
          </mxGeometry>
        </mxCell>
        <mxCell id="jCJTqnAl0TPpqfKb8Z5F-173" value="" style="shape=tableRow;horizontal=0;startSize=0;swimlaneHead=0;swimlaneBody=0;top=0;left=0;bottom=0;right=0;collapsible=0;dropTarget=0;fillColor=none;points=[[0,0.5],[1,0.5]];portConstraint=eastwest;strokeColor=#DDA15E;fontSize=16;rounded=1;labelBackgroundColor=none;fontColor=#FEFAE0;" vertex="1" parent="jCJTqnAl0TPpqfKb8Z5F-93">
          <mxGeometry y="150" width="180" height="30" as="geometry" />
        </mxCell>
        <mxCell id="jCJTqnAl0TPpqfKb8Z5F-174" value="int" style="shape=partialRectangle;html=1;whiteSpace=wrap;connectable=0;fillColor=none;top=0;left=0;bottom=0;right=0;overflow=hidden;strokeColor=#DDA15E;fontSize=16;rounded=1;labelBackgroundColor=none;fontColor=#FEFAE0;" vertex="1" parent="jCJTqnAl0TPpqfKb8Z5F-173">
          <mxGeometry width="70" height="30" as="geometry">
            <mxRectangle width="70" height="30" as="alternateBounds" />
          </mxGeometry>
        </mxCell>
        <mxCell id="jCJTqnAl0TPpqfKb8Z5F-175" value="number" style="shape=partialRectangle;html=1;whiteSpace=wrap;connectable=0;fillColor=none;top=0;left=0;bottom=0;right=0;align=left;spacingLeft=6;overflow=hidden;strokeColor=#DDA15E;fontSize=16;rounded=1;labelBackgroundColor=none;fontColor=#FEFAE0;" vertex="1" parent="jCJTqnAl0TPpqfKb8Z5F-173">
          <mxGeometry x="70" width="110" height="30" as="geometry">
            <mxRectangle width="110" height="30" as="alternateBounds" />
          </mxGeometry>
        </mxCell>
        <mxCell id="jCJTqnAl0TPpqfKb8Z5F-106" style="edgeStyle=orthogonalEdgeStyle;rounded=1;orthogonalLoop=1;jettySize=auto;html=1;exitX=1;exitY=0.5;exitDx=0;exitDy=0;entryX=0;entryY=0.5;entryDx=0;entryDy=0;labelBackgroundColor=none;strokeColor=#DDA15E;fontColor=default;" edge="1" parent="1" source="jCJTqnAl0TPpqfKb8Z5F-3" target="jCJTqnAl0TPpqfKb8Z5F-33">
          <mxGeometry relative="1" as="geometry" />
        </mxCell>
        <mxCell id="jCJTqnAl0TPpqfKb8Z5F-161" value="1" style="edgeLabel;html=1;align=center;verticalAlign=middle;resizable=0;points=[];strokeColor=#DDA15E;fontColor=#FEFAE0;fillColor=#BC6C25;rounded=1;labelBackgroundColor=none;" vertex="1" connectable="0" parent="jCJTqnAl0TPpqfKb8Z5F-106">
          <mxGeometry x="-0.0725" y="1" relative="1" as="geometry">
            <mxPoint as="offset" />
          </mxGeometry>
        </mxCell>
        <mxCell id="jCJTqnAl0TPpqfKb8Z5F-163" value="1000" style="edgeLabel;html=1;align=center;verticalAlign=middle;resizable=0;points=[];strokeColor=#DDA15E;fontColor=#FEFAE0;fillColor=#BC6C25;rounded=1;labelBackgroundColor=none;" vertex="1" connectable="0" parent="jCJTqnAl0TPpqfKb8Z5F-106">
          <mxGeometry x="0.502" y="-1" relative="1" as="geometry">
            <mxPoint as="offset" />
          </mxGeometry>
        </mxCell>
        <mxCell id="jCJTqnAl0TPpqfKb8Z5F-112" value="History" style="shape=table;startSize=30;container=1;collapsible=0;childLayout=tableLayout;fixedRows=1;rowLines=0;fontStyle=0;strokeColor=#DDA15E;fontSize=16;rounded=1;labelBackgroundColor=none;fillColor=#BC6C25;fontColor=#FEFAE0;" vertex="1" parent="1">
          <mxGeometry x="760" y="790" width="180" height="120" as="geometry" />
        </mxCell>
        <mxCell id="jCJTqnAl0TPpqfKb8Z5F-113" value="" style="shape=tableRow;horizontal=0;startSize=0;swimlaneHead=0;swimlaneBody=0;top=0;left=0;bottom=0;right=0;collapsible=0;dropTarget=0;fillColor=none;points=[[0,0.5],[1,0.5]];portConstraint=eastwest;strokeColor=#DDA15E;fontSize=16;rounded=1;labelBackgroundColor=none;fontColor=#FEFAE0;" vertex="1" parent="jCJTqnAl0TPpqfKb8Z5F-112">
          <mxGeometry y="30" width="180" height="30" as="geometry" />
        </mxCell>
        <mxCell id="jCJTqnAl0TPpqfKb8Z5F-114" value="uuid" style="shape=partialRectangle;html=1;whiteSpace=wrap;connectable=0;fillColor=none;top=0;left=0;bottom=0;right=0;overflow=hidden;pointerEvents=1;strokeColor=#DDA15E;fontSize=16;rounded=1;labelBackgroundColor=none;fontColor=#FEFAE0;" vertex="1" parent="jCJTqnAl0TPpqfKb8Z5F-113">
          <mxGeometry width="60" height="30" as="geometry">
            <mxRectangle width="60" height="30" as="alternateBounds" />
          </mxGeometry>
        </mxCell>
        <mxCell id="jCJTqnAl0TPpqfKb8Z5F-115" value="id" style="shape=partialRectangle;html=1;whiteSpace=wrap;connectable=0;fillColor=none;top=0;left=0;bottom=0;right=0;align=left;spacingLeft=6;overflow=hidden;strokeColor=#DDA15E;fontSize=16;rounded=1;labelBackgroundColor=none;fontColor=#FEFAE0;" vertex="1" parent="jCJTqnAl0TPpqfKb8Z5F-113">
          <mxGeometry x="60" width="120" height="30" as="geometry">
            <mxRectangle width="120" height="30" as="alternateBounds" />
          </mxGeometry>
        </mxCell>
        <mxCell id="jCJTqnAl0TPpqfKb8Z5F-116" value="" style="shape=tableRow;horizontal=0;startSize=0;swimlaneHead=0;swimlaneBody=0;top=0;left=0;bottom=0;right=0;collapsible=0;dropTarget=0;fillColor=none;points=[[0,0.5],[1,0.5]];portConstraint=eastwest;strokeColor=#DDA15E;fontSize=16;rounded=1;labelBackgroundColor=none;fontColor=#FEFAE0;" vertex="1" parent="jCJTqnAl0TPpqfKb8Z5F-112">
          <mxGeometry y="60" width="180" height="30" as="geometry" />
        </mxCell>
        <mxCell id="jCJTqnAl0TPpqfKb8Z5F-117" value="uuid" style="shape=partialRectangle;html=1;whiteSpace=wrap;connectable=0;fillColor=none;top=0;left=0;bottom=0;right=0;overflow=hidden;strokeColor=#DDA15E;fontSize=16;rounded=1;labelBackgroundColor=none;fontColor=#FEFAE0;" vertex="1" parent="jCJTqnAl0TPpqfKb8Z5F-116">
          <mxGeometry width="60" height="30" as="geometry">
            <mxRectangle width="60" height="30" as="alternateBounds" />
          </mxGeometry>
        </mxCell>
        <mxCell id="jCJTqnAl0TPpqfKb8Z5F-118" value="user_id" style="shape=partialRectangle;html=1;whiteSpace=wrap;connectable=0;fillColor=none;top=0;left=0;bottom=0;right=0;align=left;spacingLeft=6;overflow=hidden;strokeColor=#DDA15E;fontSize=16;rounded=1;labelBackgroundColor=none;fontColor=#FEFAE0;" vertex="1" parent="jCJTqnAl0TPpqfKb8Z5F-116">
          <mxGeometry x="60" width="120" height="30" as="geometry">
            <mxRectangle width="120" height="30" as="alternateBounds" />
          </mxGeometry>
        </mxCell>
        <mxCell id="jCJTqnAl0TPpqfKb8Z5F-119" value="" style="shape=tableRow;horizontal=0;startSize=0;swimlaneHead=0;swimlaneBody=0;top=0;left=0;bottom=0;right=0;collapsible=0;dropTarget=0;fillColor=none;points=[[0,0.5],[1,0.5]];portConstraint=eastwest;strokeColor=#DDA15E;fontSize=16;rounded=1;labelBackgroundColor=none;fontColor=#FEFAE0;" vertex="1" parent="jCJTqnAl0TPpqfKb8Z5F-112">
          <mxGeometry y="90" width="180" height="30" as="geometry" />
        </mxCell>
        <mxCell id="jCJTqnAl0TPpqfKb8Z5F-120" value="uuid" style="shape=partialRectangle;html=1;whiteSpace=wrap;connectable=0;fillColor=none;top=0;left=0;bottom=0;right=0;overflow=hidden;strokeColor=#DDA15E;fontSize=16;rounded=1;labelBackgroundColor=none;fontColor=#FEFAE0;" vertex="1" parent="jCJTqnAl0TPpqfKb8Z5F-119">
          <mxGeometry width="60" height="30" as="geometry">
            <mxRectangle width="60" height="30" as="alternateBounds" />
          </mxGeometry>
        </mxCell>
        <mxCell id="jCJTqnAl0TPpqfKb8Z5F-121" value="form_id" style="shape=partialRectangle;html=1;whiteSpace=wrap;connectable=0;fillColor=none;top=0;left=0;bottom=0;right=0;align=left;spacingLeft=6;overflow=hidden;strokeColor=#DDA15E;fontSize=16;rounded=1;labelBackgroundColor=none;fontColor=#FEFAE0;" vertex="1" parent="jCJTqnAl0TPpqfKb8Z5F-119">
          <mxGeometry x="60" width="120" height="30" as="geometry">
            <mxRectangle width="120" height="30" as="alternateBounds" />
          </mxGeometry>
        </mxCell>
        <mxCell id="jCJTqnAl0TPpqfKb8Z5F-125" style="edgeStyle=orthogonalEdgeStyle;rounded=1;orthogonalLoop=1;jettySize=auto;html=1;exitX=1;exitY=0.5;exitDx=0;exitDy=0;entryX=0;entryY=0.5;entryDx=0;entryDy=0;labelBackgroundColor=none;strokeColor=#DDA15E;fontColor=default;" edge="1" parent="1" source="jCJTqnAl0TPpqfKb8Z5F-27" target="jCJTqnAl0TPpqfKb8Z5F-55">
          <mxGeometry relative="1" as="geometry" />
        </mxCell>
        <mxCell id="jCJTqnAl0TPpqfKb8Z5F-126" value="1" style="edgeLabel;html=1;align=center;verticalAlign=middle;resizable=0;points=[];rounded=1;labelBackgroundColor=none;fontColor=#FEFAE0;" vertex="1" connectable="0" parent="jCJTqnAl0TPpqfKb8Z5F-125">
          <mxGeometry x="-0.4849" y="3" relative="1" as="geometry">
            <mxPoint as="offset" />
          </mxGeometry>
        </mxCell>
        <mxCell id="jCJTqnAl0TPpqfKb8Z5F-127" value="1000" style="edgeLabel;html=1;align=center;verticalAlign=middle;resizable=0;points=[];rounded=1;labelBackgroundColor=none;fontColor=#FEFAE0;" vertex="1" connectable="0" parent="jCJTqnAl0TPpqfKb8Z5F-125">
          <mxGeometry x="0.6147" y="-2" relative="1" as="geometry">
            <mxPoint as="offset" />
          </mxGeometry>
        </mxCell>
        <mxCell id="jCJTqnAl0TPpqfKb8Z5F-134" value="History_answers" style="shape=table;startSize=30;container=1;collapsible=0;childLayout=tableLayout;fixedRows=1;rowLines=0;fontStyle=0;strokeColor=#DDA15E;fontSize=16;rounded=1;labelBackgroundColor=none;fillColor=#BC6C25;fontColor=#FEFAE0;" vertex="1" parent="1">
          <mxGeometry x="1230" y="710" width="180" height="180" as="geometry" />
        </mxCell>
        <mxCell id="jCJTqnAl0TPpqfKb8Z5F-135" value="" style="shape=tableRow;horizontal=0;startSize=0;swimlaneHead=0;swimlaneBody=0;top=0;left=0;bottom=0;right=0;collapsible=0;dropTarget=0;fillColor=none;points=[[0,0.5],[1,0.5]];portConstraint=eastwest;strokeColor=#DDA15E;fontSize=16;rounded=1;labelBackgroundColor=none;fontColor=#FEFAE0;" vertex="1" parent="jCJTqnAl0TPpqfKb8Z5F-134">
          <mxGeometry y="30" width="180" height="30" as="geometry" />
        </mxCell>
        <mxCell id="jCJTqnAl0TPpqfKb8Z5F-136" value="uuid" style="shape=partialRectangle;html=1;whiteSpace=wrap;connectable=0;fillColor=none;top=0;left=0;bottom=0;right=0;overflow=hidden;pointerEvents=1;strokeColor=#DDA15E;fontSize=16;rounded=1;labelBackgroundColor=none;fontColor=#FEFAE0;" vertex="1" parent="jCJTqnAl0TPpqfKb8Z5F-135">
          <mxGeometry width="70" height="30" as="geometry">
            <mxRectangle width="70" height="30" as="alternateBounds" />
          </mxGeometry>
        </mxCell>
        <mxCell id="jCJTqnAl0TPpqfKb8Z5F-137" value="id" style="shape=partialRectangle;html=1;whiteSpace=wrap;connectable=0;fillColor=none;top=0;left=0;bottom=0;right=0;align=left;spacingLeft=6;overflow=hidden;strokeColor=#DDA15E;fontSize=16;rounded=1;labelBackgroundColor=none;fontColor=#FEFAE0;" vertex="1" parent="jCJTqnAl0TPpqfKb8Z5F-135">
          <mxGeometry x="70" width="110" height="30" as="geometry">
            <mxRectangle width="110" height="30" as="alternateBounds" />
          </mxGeometry>
        </mxCell>
        <mxCell id="jCJTqnAl0TPpqfKb8Z5F-144" value="" style="shape=tableRow;horizontal=0;startSize=0;swimlaneHead=0;swimlaneBody=0;top=0;left=0;bottom=0;right=0;collapsible=0;dropTarget=0;fillColor=none;points=[[0,0.5],[1,0.5]];portConstraint=eastwest;strokeColor=#DDA15E;fontSize=16;rounded=1;labelBackgroundColor=none;fontColor=#FEFAE0;" vertex="1" parent="jCJTqnAl0TPpqfKb8Z5F-134">
          <mxGeometry y="60" width="180" height="30" as="geometry" />
        </mxCell>
        <mxCell id="jCJTqnAl0TPpqfKb8Z5F-145" value="uuid" style="shape=partialRectangle;html=1;whiteSpace=wrap;connectable=0;fillColor=none;top=0;left=0;bottom=0;right=0;overflow=hidden;pointerEvents=1;strokeColor=#DDA15E;fontSize=16;rounded=1;labelBackgroundColor=none;fontColor=#FEFAE0;" vertex="1" parent="jCJTqnAl0TPpqfKb8Z5F-144">
          <mxGeometry width="70" height="30" as="geometry">
            <mxRectangle width="70" height="30" as="alternateBounds" />
          </mxGeometry>
        </mxCell>
        <mxCell id="jCJTqnAl0TPpqfKb8Z5F-146" value="history_id" style="shape=partialRectangle;html=1;whiteSpace=wrap;connectable=0;fillColor=none;top=0;left=0;bottom=0;right=0;align=left;spacingLeft=6;overflow=hidden;strokeColor=#DDA15E;fontSize=16;rounded=1;labelBackgroundColor=none;fontColor=#FEFAE0;" vertex="1" parent="jCJTqnAl0TPpqfKb8Z5F-144">
          <mxGeometry x="70" width="110" height="30" as="geometry">
            <mxRectangle width="110" height="30" as="alternateBounds" />
          </mxGeometry>
        </mxCell>
        <mxCell id="jCJTqnAl0TPpqfKb8Z5F-150" value="" style="shape=tableRow;horizontal=0;startSize=0;swimlaneHead=0;swimlaneBody=0;top=0;left=0;bottom=0;right=0;collapsible=0;dropTarget=0;fillColor=none;points=[[0,0.5],[1,0.5]];portConstraint=eastwest;strokeColor=#DDA15E;fontSize=16;rounded=1;labelBackgroundColor=none;fontColor=#FEFAE0;" vertex="1" parent="jCJTqnAl0TPpqfKb8Z5F-134">
          <mxGeometry y="90" width="180" height="30" as="geometry" />
        </mxCell>
        <mxCell id="jCJTqnAl0TPpqfKb8Z5F-151" value="uuid" style="shape=partialRectangle;html=1;whiteSpace=wrap;connectable=0;fillColor=none;top=0;left=0;bottom=0;right=0;overflow=hidden;pointerEvents=1;strokeColor=#DDA15E;fontSize=16;rounded=1;labelBackgroundColor=none;fontColor=#FEFAE0;" vertex="1" parent="jCJTqnAl0TPpqfKb8Z5F-150">
          <mxGeometry width="70" height="30" as="geometry">
            <mxRectangle width="70" height="30" as="alternateBounds" />
          </mxGeometry>
        </mxCell>
        <mxCell id="jCJTqnAl0TPpqfKb8Z5F-152" value="test_id" style="shape=partialRectangle;html=1;whiteSpace=wrap;connectable=0;fillColor=none;top=0;left=0;bottom=0;right=0;align=left;spacingLeft=6;overflow=hidden;strokeColor=#DDA15E;fontSize=16;rounded=1;labelBackgroundColor=none;fontColor=#FEFAE0;" vertex="1" parent="jCJTqnAl0TPpqfKb8Z5F-150">
          <mxGeometry x="70" width="110" height="30" as="geometry">
            <mxRectangle width="110" height="30" as="alternateBounds" />
          </mxGeometry>
        </mxCell>
        <mxCell id="jCJTqnAl0TPpqfKb8Z5F-138" value="" style="shape=tableRow;horizontal=0;startSize=0;swimlaneHead=0;swimlaneBody=0;top=0;left=0;bottom=0;right=0;collapsible=0;dropTarget=0;fillColor=none;points=[[0,0.5],[1,0.5]];portConstraint=eastwest;strokeColor=#DDA15E;fontSize=16;rounded=1;labelBackgroundColor=none;fontColor=#FEFAE0;" vertex="1" parent="jCJTqnAl0TPpqfKb8Z5F-134">
          <mxGeometry y="120" width="180" height="30" as="geometry" />
        </mxCell>
        <mxCell id="jCJTqnAl0TPpqfKb8Z5F-139" value="varchar" style="shape=partialRectangle;html=1;whiteSpace=wrap;connectable=0;fillColor=none;top=0;left=0;bottom=0;right=0;overflow=hidden;strokeColor=#DDA15E;fontSize=16;rounded=1;labelBackgroundColor=none;fontColor=#FEFAE0;" vertex="1" parent="jCJTqnAl0TPpqfKb8Z5F-138">
          <mxGeometry width="70" height="30" as="geometry">
            <mxRectangle width="70" height="30" as="alternateBounds" />
          </mxGeometry>
        </mxCell>
        <mxCell id="jCJTqnAl0TPpqfKb8Z5F-140" value="answer" style="shape=partialRectangle;html=1;whiteSpace=wrap;connectable=0;fillColor=none;top=0;left=0;bottom=0;right=0;align=left;spacingLeft=6;overflow=hidden;strokeColor=#DDA15E;fontSize=16;rounded=1;labelBackgroundColor=none;fontColor=#FEFAE0;" vertex="1" parent="jCJTqnAl0TPpqfKb8Z5F-138">
          <mxGeometry x="70" width="110" height="30" as="geometry">
            <mxRectangle width="110" height="30" as="alternateBounds" />
          </mxGeometry>
        </mxCell>
        <mxCell id="jCJTqnAl0TPpqfKb8Z5F-141" value="" style="shape=tableRow;horizontal=0;startSize=0;swimlaneHead=0;swimlaneBody=0;top=0;left=0;bottom=0;right=0;collapsible=0;dropTarget=0;fillColor=none;points=[[0,0.5],[1,0.5]];portConstraint=eastwest;strokeColor=#DDA15E;fontSize=16;rounded=1;labelBackgroundColor=none;fontColor=#FEFAE0;" vertex="1" parent="jCJTqnAl0TPpqfKb8Z5F-134">
          <mxGeometry y="150" width="180" height="30" as="geometry" />
        </mxCell>
        <mxCell id="jCJTqnAl0TPpqfKb8Z5F-142" value="boolean" style="shape=partialRectangle;html=1;whiteSpace=wrap;connectable=0;fillColor=none;top=0;left=0;bottom=0;right=0;overflow=hidden;strokeColor=#DDA15E;fontSize=16;rounded=1;labelBackgroundColor=none;fontColor=#FEFAE0;" vertex="1" parent="jCJTqnAl0TPpqfKb8Z5F-141">
          <mxGeometry width="70" height="30" as="geometry">
            <mxRectangle width="70" height="30" as="alternateBounds" />
          </mxGeometry>
        </mxCell>
        <mxCell id="jCJTqnAl0TPpqfKb8Z5F-143" value="is_right" style="shape=partialRectangle;html=1;whiteSpace=wrap;connectable=0;fillColor=none;top=0;left=0;bottom=0;right=0;align=left;spacingLeft=6;overflow=hidden;strokeColor=#DDA15E;fontSize=16;rounded=1;labelBackgroundColor=none;fontColor=#FEFAE0;" vertex="1" parent="jCJTqnAl0TPpqfKb8Z5F-141">
          <mxGeometry x="70" width="110" height="30" as="geometry">
            <mxRectangle width="110" height="30" as="alternateBounds" />
          </mxGeometry>
        </mxCell>
        <mxCell id="jCJTqnAl0TPpqfKb8Z5F-147" style="edgeStyle=orthogonalEdgeStyle;rounded=1;orthogonalLoop=1;jettySize=auto;html=1;exitX=1;exitY=0.5;exitDx=0;exitDy=0;entryX=0;entryY=0.5;entryDx=0;entryDy=0;strokeColor=#DDA15E;fontColor=default;fillColor=#BC6C25;labelBackgroundColor=none;" edge="1" parent="1" source="jCJTqnAl0TPpqfKb8Z5F-113" target="jCJTqnAl0TPpqfKb8Z5F-144">
          <mxGeometry relative="1" as="geometry" />
        </mxCell>
        <mxCell id="jCJTqnAl0TPpqfKb8Z5F-166" value="1" style="edgeLabel;html=1;align=center;verticalAlign=middle;resizable=0;points=[];strokeColor=#DDA15E;fontColor=#FEFAE0;fillColor=#BC6C25;rounded=1;labelBackgroundColor=none;" vertex="1" connectable="0" parent="jCJTqnAl0TPpqfKb8Z5F-147">
          <mxGeometry x="-0.6471" relative="1" as="geometry">
            <mxPoint as="offset" />
          </mxGeometry>
        </mxCell>
        <mxCell id="jCJTqnAl0TPpqfKb8Z5F-167" value="1000" style="edgeLabel;html=1;align=center;verticalAlign=middle;resizable=0;points=[];strokeColor=#DDA15E;fontColor=#FEFAE0;fillColor=#BC6C25;rounded=1;labelBackgroundColor=none;" vertex="1" connectable="0" parent="jCJTqnAl0TPpqfKb8Z5F-147">
          <mxGeometry x="0.3941" y="-1" relative="1" as="geometry">
            <mxPoint as="offset" />
          </mxGeometry>
        </mxCell>
        <mxCell id="jCJTqnAl0TPpqfKb8Z5F-148" style="edgeStyle=orthogonalEdgeStyle;rounded=1;orthogonalLoop=1;jettySize=auto;html=1;exitX=1;exitY=0.5;exitDx=0;exitDy=0;entryX=0;entryY=0.5;entryDx=0;entryDy=0;strokeColor=#DDA15E;fontColor=default;fillColor=#BC6C25;labelBackgroundColor=none;" edge="1" parent="1" source="jCJTqnAl0TPpqfKb8Z5F-3" target="jCJTqnAl0TPpqfKb8Z5F-116">
          <mxGeometry relative="1" as="geometry" />
        </mxCell>
        <mxCell id="jCJTqnAl0TPpqfKb8Z5F-160" value="1000" style="edgeLabel;html=1;align=center;verticalAlign=middle;resizable=0;points=[];strokeColor=#DDA15E;fontColor=#FEFAE0;fillColor=#BC6C25;rounded=1;labelBackgroundColor=none;" vertex="1" connectable="0" parent="jCJTqnAl0TPpqfKb8Z5F-148">
          <mxGeometry x="0.7508" y="-3" relative="1" as="geometry">
            <mxPoint as="offset" />
          </mxGeometry>
        </mxCell>
        <mxCell id="jCJTqnAl0TPpqfKb8Z5F-162" value="1" style="edgeLabel;html=1;align=center;verticalAlign=middle;resizable=0;points=[];strokeColor=#DDA15E;fontColor=#FEFAE0;fillColor=#BC6C25;rounded=1;labelBackgroundColor=none;" vertex="1" connectable="0" parent="jCJTqnAl0TPpqfKb8Z5F-148">
          <mxGeometry x="-0.6" relative="1" as="geometry">
            <mxPoint as="offset" />
          </mxGeometry>
        </mxCell>
        <mxCell id="jCJTqnAl0TPpqfKb8Z5F-149" style="edgeStyle=orthogonalEdgeStyle;rounded=1;orthogonalLoop=1;jettySize=auto;html=1;exitX=1;exitY=0.5;exitDx=0;exitDy=0;entryX=0;entryY=0.5;entryDx=0;entryDy=0;strokeColor=#DDA15E;fontColor=default;fillColor=#BC6C25;labelBackgroundColor=none;" edge="1" parent="1" source="jCJTqnAl0TPpqfKb8Z5F-27" target="jCJTqnAl0TPpqfKb8Z5F-119">
          <mxGeometry relative="1" as="geometry" />
        </mxCell>
        <mxCell id="jCJTqnAl0TPpqfKb8Z5F-164" value="1" style="edgeLabel;html=1;align=center;verticalAlign=middle;resizable=0;points=[];strokeColor=#DDA15E;fontColor=#FEFAE0;fillColor=#BC6C25;rounded=1;labelBackgroundColor=none;" vertex="1" connectable="0" parent="jCJTqnAl0TPpqfKb8Z5F-149">
          <mxGeometry x="-0.3733" y="4" relative="1" as="geometry">
            <mxPoint as="offset" />
          </mxGeometry>
        </mxCell>
        <mxCell id="jCJTqnAl0TPpqfKb8Z5F-165" value="1000" style="edgeLabel;html=1;align=center;verticalAlign=middle;resizable=0;points=[];strokeColor=#DDA15E;fontColor=#FEFAE0;fillColor=#BC6C25;rounded=1;labelBackgroundColor=none;" vertex="1" connectable="0" parent="jCJTqnAl0TPpqfKb8Z5F-149">
          <mxGeometry x="0.5233" y="-1" relative="1" as="geometry">
            <mxPoint as="offset" />
          </mxGeometry>
        </mxCell>
        <mxCell id="jCJTqnAl0TPpqfKb8Z5F-153" style="edgeStyle=orthogonalEdgeStyle;rounded=1;orthogonalLoop=1;jettySize=auto;html=1;exitX=1;exitY=0.5;exitDx=0;exitDy=0;entryX=0;entryY=0.5;entryDx=0;entryDy=0;strokeColor=#DDA15E;fontColor=default;fillColor=#BC6C25;labelBackgroundColor=none;" edge="1" parent="1" source="jCJTqnAl0TPpqfKb8Z5F-52" target="jCJTqnAl0TPpqfKb8Z5F-150">
          <mxGeometry relative="1" as="geometry" />
        </mxCell>
        <mxCell id="jCJTqnAl0TPpqfKb8Z5F-171" value="1" style="edgeLabel;html=1;align=center;verticalAlign=middle;resizable=0;points=[];strokeColor=#DDA15E;fontColor=#FEFAE0;fillColor=#BC6C25;rounded=1;labelBackgroundColor=none;" vertex="1" connectable="0" parent="jCJTqnAl0TPpqfKb8Z5F-153">
          <mxGeometry x="-0.7101" y="1" relative="1" as="geometry">
            <mxPoint as="offset" />
          </mxGeometry>
        </mxCell>
        <mxCell id="jCJTqnAl0TPpqfKb8Z5F-172" value="1000" style="edgeLabel;html=1;align=center;verticalAlign=middle;resizable=0;points=[];strokeColor=#DDA15E;fontColor=#FEFAE0;fillColor=#BC6C25;rounded=1;labelBackgroundColor=none;" vertex="1" connectable="0" parent="jCJTqnAl0TPpqfKb8Z5F-153">
          <mxGeometry x="0.6118" y="1" relative="1" as="geometry">
            <mxPoint as="offset" />
          </mxGeometry>
        </mxCell>
        <mxCell id="jCJTqnAl0TPpqfKb8Z5F-157" style="edgeStyle=orthogonalEdgeStyle;rounded=1;orthogonalLoop=1;jettySize=auto;html=1;exitX=1;exitY=0.5;exitDx=0;exitDy=0;entryX=0;entryY=0.5;entryDx=0;entryDy=0;strokeColor=#DDA15E;fontColor=default;fillColor=#BC6C25;labelBackgroundColor=none;" edge="1" parent="1" source="jCJTqnAl0TPpqfKb8Z5F-52" target="jCJTqnAl0TPpqfKb8Z5F-154">
          <mxGeometry relative="1" as="geometry" />
        </mxCell>
        <mxCell id="jCJTqnAl0TPpqfKb8Z5F-158" value="1" style="edgeLabel;html=1;align=center;verticalAlign=middle;resizable=0;points=[];strokeColor=#DDA15E;fontColor=#FEFAE0;fillColor=#BC6C25;rounded=1;labelBackgroundColor=none;" vertex="1" connectable="0" parent="jCJTqnAl0TPpqfKb8Z5F-157">
          <mxGeometry x="-0.5759" y="1" relative="1" as="geometry">
            <mxPoint as="offset" />
          </mxGeometry>
        </mxCell>
        <mxCell id="jCJTqnAl0TPpqfKb8Z5F-159" value="1000" style="edgeLabel;html=1;align=center;verticalAlign=middle;resizable=0;points=[];strokeColor=#DDA15E;fontColor=#FEFAE0;fillColor=#BC6C25;rounded=1;labelBackgroundColor=none;" vertex="1" connectable="0" parent="jCJTqnAl0TPpqfKb8Z5F-157">
          <mxGeometry x="0.3699" y="2" relative="1" as="geometry">
            <mxPoint as="offset" />
          </mxGeometry>
        </mxCell>
        <mxCell id="jCJTqnAl0TPpqfKb8Z5F-168" style="edgeStyle=orthogonalEdgeStyle;rounded=1;orthogonalLoop=1;jettySize=auto;html=1;exitX=1;exitY=0.5;exitDx=0;exitDy=0;entryX=0;entryY=0.5;entryDx=0;entryDy=0;strokeColor=#DDA15E;fontColor=default;fillColor=#BC6C25;labelBackgroundColor=none;" edge="1" parent="1" source="jCJTqnAl0TPpqfKb8Z5F-119" target="jCJTqnAl0TPpqfKb8Z5F-55">
          <mxGeometry relative="1" as="geometry" />
        </mxCell>
        <mxCell id="jCJTqnAl0TPpqfKb8Z5F-169" value="1000" style="edgeLabel;html=1;align=center;verticalAlign=middle;resizable=0;points=[];strokeColor=#DDA15E;fontColor=#FEFAE0;fillColor=#BC6C25;rounded=1;labelBackgroundColor=none;" vertex="1" connectable="0" parent="jCJTqnAl0TPpqfKb8Z5F-168">
          <mxGeometry x="0.4005" y="-2" relative="1" as="geometry">
            <mxPoint as="offset" />
          </mxGeometry>
        </mxCell>
        <mxCell id="jCJTqnAl0TPpqfKb8Z5F-170" value="1" style="edgeLabel;html=1;align=center;verticalAlign=middle;resizable=0;points=[];strokeColor=#DDA15E;fontColor=#FEFAE0;fillColor=#BC6C25;rounded=1;labelBackgroundColor=none;" vertex="1" connectable="0" parent="jCJTqnAl0TPpqfKb8Z5F-168">
          <mxGeometry x="-0.7894" y="-3" relative="1" as="geometry">
            <mxPoint as="offset" />
          </mxGeometry>
        </mxCell>
      </root>
    </mxGraphModel>
  </diagram>
</mxfile>
